<?xml version="1.0" encoding="iso-8859-1"?>
<!-- Generator: Adobe Illustrator 19.0.0, SVG Export Plug-In . SVG Version: 6.00 Build 0)  -->
<svg version="1.1" id="Capa_1" xmlns="http://www.w3.org/2000/svg" xmlns:xlink="http://www.w3.org/1999/xlink" x="0px" y="0px"
	 viewBox="0 0 58.136 58.136" style="enable-background:new 0 0 58.136 58.136;" xml:space="preserve">
<rect y="15.502" style="fill:#D75A4A;" width="19" height="13"/>
<rect x="19" y="15.502" style="fill:#ED7161;" width="19" height="13"/>
<rect x="38" y="15.502" style="fill:#D75A4A;" width="20" height="13"/>
<rect x="10" y="28.502" style="fill:#D75A4A;" width="19" height="13"/>
<rect y="28.502" style="fill:#ED7161;" width="10" height="13"/>
<rect x="48" y="28.502" style="fill:#D75A4A;" width="10" height="13"/>
<rect x="29" y="28.502" style="fill:#ED7161;" width="19" height="13"/>
<rect x="10" y="2.502" style="fill:#D75A4A;" width="19" height="13"/>
<path style="fill:#ED7161;" d="M10,15.502H0V4.452c0-1.077,0.873-1.95,1.95-1.95H10V15.502z"/>
<path style="fill:#D75A4A;" d="M58,15.502H48v-13h8.05c1.077,0,1.95,0.873,1.95,1.95V15.502z"/>
<rect x="29" y="2.502" style="fill:#ED7161;" width="19" height="13"/>
<path style="fill:#D75A4A;" d="M19,54.502H1.95c-1.077,0-1.95-0.873-1.95-1.95v-11.05h19V54.502z"/>
<rect x="19" y="41.502" style="fill:#ED7161;" width="19" height="13"/>
<path style="fill:#D75A4A;" d="M56.05,54.502H38v-13h20v11.05C58,53.629,57.127,54.502,56.05,54.502z"/>
<rect y="14.502" style="fill:#D1D4D1;" width="58" height="2"/>
<rect y="27.502" style="fill:#D1D4D1;" width="58" height="2"/>
<rect y="40.502" style="fill:#D1D4D1;" width="58" height="2"/>
<rect x="9" y="2.502" style="fill:#D1D4D1;" width="2" height="12"/>
<rect x="28" y="2.502" style="fill:#D1D4D1;" width="2" height="12"/>
<rect x="47" y="2.502" style="fill:#D1D4D1;" width="2" height="12"/>
<rect x="37" y="16.502" style="fill:#D1D4D1;" width="2" height="12"/>
<rect x="18" y="16.502" style="fill:#D1D4D1;" width="2" height="12"/>
<rect x="9" y="29.502" style="fill:#D1D4D1;" width="2" height="12"/>
<rect x="28" y="29.502" style="fill:#D1D4D1;" width="2" height="12"/>
<rect x="47" y="29.502" style="fill:#D1D4D1;" width="2" height="12"/>
<rect x="37" y="42.502" style="fill:#D1D4D1;" width="2" height="12"/>
<rect x="18" y="42.502" style="fill:#D1D4D1;" width="2" height="12"/>
<path style="fill:#F3D55B;" d="M53.17,23.505l-4.701-5.356c-0.652,5.92-2.346,10.484-2.346,10.484
	c0-7.817-2.814-14.764-6.424-20.475l-0.576-0.656l-4.59,5.229c-5.922,6.746-8.438,15.907-6.491,24.67
	c0.017,0.077,0.035,0.154,0.052,0.232c0,0-3.559-5.036-5.181-11.266c-4.416,7.053-3.814,16.322,1.833,22.755
	c7.565,8.619,20.942,8.68,28.591,0.185C59.891,42.027,59.633,30.868,53.17,23.505z"/>
<path style="fill:#E57E25;" d="M45.774,40.224l-2.236-2.547c-0.31,2.815-1.116,4.986-1.116,4.986c0-3.717-1.338-7.021-3.055-9.737
	l-0.274-0.312L36.911,35.1c-2.816,3.208-4.013,7.565-3.087,11.732c0.008,0.037,0.016,0.073,0.025,0.11c0,0-1.693-2.395-2.464-5.357
	c-2.1,3.354-1.814,7.762,0.872,10.821c3.598,4.099,9.959,4.128,13.597,0.088C48.971,49.032,48.848,43.725,45.774,40.224z"/>
<g>
</g>
<g>
</g>
<g>
</g>
<g>
</g>
<g>
</g>
<g>
</g>
<g>
</g>
<g>
</g>
<g>
</g>
<g>
</g>
<g>
</g>
<g>
</g>
<g>
</g>
<g>
</g>
<g>
</g>
</svg>
