<?xml version="1.0" encoding="utf-8"?>
<!-- Generator: Adobe Illustrator 17.1.0, SVG Export Plug-In . SVG Version: 6.00 Build 0)  -->
<!DOCTYPE svg PUBLIC "-//W3C//DTD SVG 1.1//EN" "http://www.w3.org/Graphics/SVG/1.1/DTD/svg11.dtd">
<svg version="1.1" id="Capa_1" xmlns="http://www.w3.org/2000/svg" xmlns:xlink="http://www.w3.org/1999/xlink" x="0px" y="0px"
	 viewBox="0 0 1278 871" enable-background="new 0 0 1278 871" xml:space="preserve">
<linearGradient id="SVGID_1_" gradientUnits="userSpaceOnUse" x1="-405.1259" y1="64.0017" x2="-399.2077" y2="64.0017" gradientTransform="matrix(147.1731 0 0 147.1731 59827.3398 -8985.3135)">
	<stop  offset="0" style="stop-color:#316EB6"/>
	<stop  offset="1" style="stop-color:#193E97"/>
</linearGradient>
<path fill="url(#SVGID_1_)" d="M1074.7,788.4c0,45.2-36.6,81.8-81.8,81.8H285.5c-45.2,0-81.8-36.6-81.8-81.8V79.6
	c0-44.5,37.3-81.8,81.8-81.8h707.4c45.2,0,81.8,36.6,81.8,81.8V788.4z"/>
<path fill="#FFFFFF" d="M639.2,434"/>
<g>
	<path fill="#FFFFFF" d="M478.7,496.8h-62.5c-21.2,0-33.2,8-33.2,34.1v125.3c0,26.2,10.8,34.1,33.2,34.1h62.5
		c22.5,0,33.2-12.3,33.2-34.1V531.1C512.1,506,504,496.8,478.7,496.8z M479.4,647.4c0,6.2-5,11.4-11.1,11.4h-41.9
		c-6.2,0-11.1-5.3-11.1-11.4V541.8c0-6.2,5-11.4,11.1-11.4h41.9c6.2,0,11.1,5.3,11.1,11.4L479.4,647.4L479.4,647.4z"/>
	<path fill="#FFFFFF" d="M669.7,496.8h-62.2c-21.2,0-33.2,8-33.2,34.1v125.3c0,26.2,10.8,34.1,33.2,34.1H670
		c22.5,0,33.2-12.3,33.2-34.1V531.1C702.9,506,695,496.8,669.7,496.8z M670.3,647.4c0,6.2-5,11.4-11.1,11.4h-41.6
		c-6.2,0-11.1-5.3-11.1-11.4V541.8c0-6.2,5-11.4,11.1-11.4h41.9c6.2,0,11.1,5.3,11.1,11.4v105.6L670.3,647.4L670.3,647.4z"/>
	<path fill="#FFFFFF" d="M862.2,496.8h-62.5c-21.2,0-33.2,8-33.2,34.1v125.3c0,26.2,10.8,34.1,33.2,34.1h62.5
		c22.5,0,33.2-12.3,33.2-34.1V531.1C895.4,506,887.4,496.8,862.2,496.8z M862.8,647.4c0,6.2-5,11.4-11.1,11.4h-41.9
		c-6.2,0-11.1-5.3-11.1-11.4V541.8c0-6.2,5-11.4,11.1-11.4h41.9c6.2,0,11.1,5.3,11.1,11.4V647.4z"/>
	<path fill="#FFFFFF" d="M847.7,512.5v-44.1c0-24.9-8-34.1-33.2-34.1H464.3c-21.2,0-33.2,8-33.2,34.1v44.1l32.9-0.3v-34.1
		c0-6.2,5-11.4,11.1-11.4h329.2c6.2,0,11.1,5.3,11.1,11.4v34.1L847.7,512.5z"/>
	<path fill="#FFFFFF" d="M699.8,177.7h-120c-22.5,0-36.3,8.9-36.3,34.1v43.8c0,25.9,10.4,34.1,36.3,34.1h120.1
		c26.5,0,35.4-11.4,35.4-34.1v-43.8C735.3,190.6,725.1,177.7,699.8,177.7z M703.6,247.2c0,6.2-5,11.4-11.1,11.4H585.9
		c-6.2,0-10.4-5.3-10.4-11.4v-25.6c0-6.2,4.3-11.4,10.4-11.4h106.6c6.2,0,11.1,5.3,11.1,11.4V247.2L703.6,247.2z"/>
	<path fill="#FFFFFF" d="M623.5,381.4l31.8-8.9v139.8h-31.8V381.4z"/>
	<path fill="#FFFFFF" d="M766,393.4L734,334.3c-15.4-31.8-15.4-28.3-33.8-28.3H561.6c-14.5,0-16.7,10.8-16,9.2l-32.9,78.2
		c-3.1,5-1.6,8.9,3.7,8.9h246C767.6,402.3,769.1,398.3,766,393.4z M720.2,369.7L559.8,370l16.3-32.1l126.8,0.6L720.2,369.7z"/>
</g>
</svg>
