<?xml version="1.0" encoding="utf-8"?>
<!-- Generator: Adobe Illustrator 17.1.0, SVG Export Plug-In . SVG Version: 6.00 Build 0)  -->
<!DOCTYPE svg PUBLIC "-//W3C//DTD SVG 1.1//EN" "http://www.w3.org/Graphics/SVG/1.1/DTD/svg11.dtd">
<svg version="1.1" id="Capa_1" xmlns="http://www.w3.org/2000/svg" xmlns:xlink="http://www.w3.org/1999/xlink" x="0px" y="0px"
	 viewBox="0 0 1278 871" enable-background="new 0 0 1278 871" xml:space="preserve">
<path fill="#1A439A" d="M663.5,864L204.1,639.3V167.6l459.3,207.2L663.5,864L663.5,864z"/>
<path fill="#3562AE" d="M663.5,864l410.4-224.7V169.6L663.5,374.9V864L663.5,864z"/>
<path fill="#5C97D1" d="M204.1,167.6l459.3,207.2l410.4-205.2L591,7L204.1,167.6z"/>
<path fill="#FFFFFF" stroke="#5B5B5A" stroke-width="0.25" stroke-miterlimit="10" d="M420.4,394.4l-26.1-14l39.5-45.1l39,87.6
	l-26.1-14l-0.5,74.5l-26.1-14L420.4,394.4z M445.9,567.6l-26.1-14l-0.5,74.5l-26.1-14l39,87.1l39.5-45.1l-26.1-14L445.9,567.6
	L445.9,567.6z M342.7,396.4l51.6,81.1l18.5-9.1l-51.6-81.1l18.5-9.1L306,319.7l18,85.1L342.7,396.4z M523.4,640.8l-52.1-80.6
	l-18.5,9.1l52.1,80.6l-18.5,9.1l74.1,58.5L542,632.9C541.9,631.7,523.4,640.8,523.4,640.8z M317.8,469.6l73.6,39.5v-26.6L317.8,443
	v-26.6l-65.6,4.5l65.1,75L317.8,469.6L317.8,469.6z M613,615.7l-65.1-75v26.6l-73.6-39.5v26.6l73.6,39.5v26.6L613,615.7L613,615.7z
	 M412.3,547.1l-18.5-28.6l-52.1,25.1L323.2,515l-19,65.3l74.1,21l-18.5-28.6C360.3,571.7,412.3,547.1,412.3,547.1z M453.3,490.1
	l18.5,28.6l52.1-24.6l18.5,28.6l18.5-64.6l-73.6-21.5l18.5,28.6L453.3,490.1L453.3,490.1z"/>
</svg>
