<?xml version="1.0" encoding="utf-8"?>
<!-- Generator: Adobe Illustrator 17.1.0, SVG Export Plug-In . SVG Version: 6.00 Build 0)  -->
<!DOCTYPE svg PUBLIC "-//W3C//DTD SVG 1.1//EN" "http://www.w3.org/Graphics/SVG/1.1/DTD/svg11.dtd">
<svg version="1.1" id="Capa_1" xmlns="http://www.w3.org/2000/svg" xmlns:xlink="http://www.w3.org/1999/xlink" x="0px" y="0px"
	 viewBox="0 0 1278 871" enable-background="new 0 0 1278 871" xml:space="preserve">
<path fill="#1A439A" d="M221.4,322.9v228.5C222.9,645.3,417.1,735,656.9,735s433.4-89.8,435.5-183.6V322.9H221.4z"/>
<path fill="#3562AE" d="M1092.3,322.3c0,99.4-194.7,194.2-435.5,194.2s-435.4-94.9-435.4-194.2s194.7-180.5,435.4-180.5
	S1092.3,222.5,1092.3,322.3z"/>
<path fill="#FFFFFF" stroke="#5B5B5A" stroke-width="0.25" stroke-miterlimit="10" d="M619,230.8h28.7v63h29.8l-0.5-63h28.7
	l-43.5-74.9L619,230.8z M677.9,336.8h-29.8v73.8h-30.8l46.1,75.4l45.6-75.4h-30.8L677.9,336.8z M799.4,300.3l-1.5-30.3l-72.3,45.1
	l76.2,45.1l-1.4-30.1h126l-2.6-30.3H799.4V300.3L799.4,300.3z M525.7,300.3h-125l-2.1,30.3h126l-1,29.8l75.9-45.1l-72.8-45.1
	L525.7,300.3z"/>
</svg>
