<?xml version="1.0" encoding="utf-8"?>
<!-- Generator: Adobe Illustrator 17.1.0, SVG Export Plug-In . SVG Version: 6.00 Build 0)  -->
<!DOCTYPE svg PUBLIC "-//W3C//DTD SVG 1.1//EN" "http://www.w3.org/Graphics/SVG/1.1/DTD/svg11.dtd">
<svg version="1.1" id="Capa_1" xmlns="http://www.w3.org/2000/svg" xmlns:xlink="http://www.w3.org/1999/xlink" x="0px" y="0px"
	 viewBox="0 0 1278 871" enable-background="new 0 0 1278 871" xml:space="preserve">
<linearGradient id="SVGID_1_" gradientUnits="userSpaceOnUse" x1="-405.1272" y1="806.9879" x2="-399.209" y2="806.9879" gradientTransform="matrix(147.1731 0 0 -147.1731 59827.3398 119202.4531)">
	<stop  offset="0" style="stop-color:#316EB6"/>
	<stop  offset="1" style="stop-color:#193E97"/>
</linearGradient>
<path fill="url(#SVGID_1_)" d="M1074.5,789.9c0,45.2-36.6,81.8-81.8,81.8H285.3c-45.2,0-81.8-36.6-81.8-81.8V81.1
	c0-44.5,37.3-81.8,81.8-81.8h707.4c45.2,0,81.8,36.6,81.8,81.8V789.9z"/>
<path fill="#FFFFFF" d="M639,435.5"/>
<path fill="#FFFFFF" d="M917.4,170.8c-89-26.5-169.3-42.3-277.7-54.5c-53.1,2.9-103.3,9.3-149.2,19.4
	c-45.9,10.8-89.7,22.2-130.6,34.4c0,337.9-33,421.9,237.5,570.4c32.3,17.9,51.7,18.7,85.4,0C953.2,596.2,918.1,525.9,917.4,170.8z
	 M550,479.3c-5.7,10.8-14.3,18.7-24.4,24.4s-22.2,8.6-37.3,8.6c-22.2,0-40.2-7.2-53.8-20.8s-20.1-32.3-20.8-56l23-2.2
	c1.4,12.2,4.3,22.2,7.9,29.4c4.3,7.2,10.8,12.2,18.7,16.5c7.9,4.3,17.2,6.5,27.3,6.5c14.3,0,25.1-3.6,33-10.8s12.2-16.5,12.2-28
	c0-6.5-1.4-12.2-4.3-17.2s-7.2-9.3-12.9-12.2s-18.7-7.9-37.3-13.6c-17.2-5-29.4-10.8-36.6-15.8s-12.9-12.2-17.2-20.1
	c-4.3-7.9-5.7-17.2-5.7-27.3c0-18.7,5.7-33,17.2-45.2c11.5-11.5,27.3-17.2,46.6-17.2c13.6,0,25.1,2.9,35.2,7.9
	c10,5.7,17.9,13.6,23.7,23.7c5.7,10,8.6,22.2,9.3,35.9l-23,2.2c-1.4-15.1-5.7-25.8-12.9-33s-17.9-10.8-31.6-10.8s-23.7,2.9-30.9,9.3
	c-7.2,6.5-10.8,14.3-10.8,24.4c0,9.3,2.9,16.5,7.9,21.5c5,5,17.2,10,35.2,15.1c17.9,5,30.9,9.3,38,12.9c10.8,5.7,19.4,13.6,25.1,23
	c5.7,9.3,8.6,20.8,8.6,33.7C559.4,457,556.5,468.5,550,479.3z M719.4,479.3c-5.7,10.8-14.3,18.7-24.4,24.4s-22.2,8.6-37.3,8.6
	c-22.2,0-40.2-7.2-53.8-20.8c-13.6-13.6-20.1-32.3-20.8-56l23-2.2c1.4,12.2,4.3,22.2,7.9,29.4c4.3,7.2,10.8,12.2,18.7,16.5
	c7.9,4.3,17.2,6.5,27.3,6.5c14.3,0,25.1-3.6,33-10.8s12.2-16.5,12.2-28c0-6.5-1.4-12.2-4.3-17.2c-2.9-5-7.2-9.3-12.9-12.2
	c-5.7-2.9-18.7-7.9-37.3-13.6c-17.2-5-29.4-10.8-36.6-15.8S601,376,596.7,368.1c-4.3-7.9-5.7-17.2-5.7-27.3c0-18.7,5.7-33,17.2-45.2
	c11.5-11.5,27.3-17.2,46.6-17.2c13.6,0,25.1,2.9,35.2,7.9c10,5.7,17.9,13.6,23.7,23.7c5.7,10,8.6,22.2,9.3,35.9l-23,2.2
	c-1.4-15.1-5.7-25.8-12.9-33s-17.9-10.8-31.6-10.8c-13.6,0-23.7,2.9-30.9,9.3c-7.2,6.5-10.8,14.3-10.8,24.4c0,9.3,2.9,16.5,7.9,21.5
	c5,5,17.2,10,35.2,15.1s30.9,9.3,38,12.9c10.8,5.7,19.4,13.6,25.1,23c5.7,9.3,8.6,20.8,8.6,33.7C728.7,457,725.8,468.5,719.4,479.3z
	 M873.6,508H760.3V281.2h24.4v200.2h89.7V508H873.6z"/>
</svg>
